<svg t="1576199183761" class="icon" viewBox="0 0 1024 1024" version="1.1" xmlns="http://www.w3.org/2000/svg" p-id="8852" width="200" height="200">
    <path d="M512 590.933333c-145.066667 0-264.533333-119.466667-264.533333-264.533333 0-145.066667 119.466667-264.533333 264.533333-264.533333s264.533333 119.466667 264.533333 264.533333c0 145.066667-119.466667 264.533333-264.533333 264.533333z m0-465.066666c-110.933333 0-200.533333 89.6-200.533333 200.533333s89.6 200.533333 200.533333 200.533333 200.533333-89.6 200.533333-200.533333-89.6-200.533333-200.533333-200.533333z"
          p-id="8853"></path>
    <path d="M866.133333 962.133333H157.866667c-34.133333 0-64-14.933333-83.2-42.666666-19.2-25.6-25.6-59.733333-14.933334-89.6 40.533333-136.533333 164.266667-236.8 307.2-247.466667 23.466667-2.133333 46.933333 4.266667 66.133334 19.2l57.6 40.533333c12.8 10.666667 32 10.666667 46.933333 0l57.6-40.533333c19.2-14.933333 42.666667-21.333333 66.133333-19.2 142.933333 10.666667 266.666667 110.933333 307.2 247.466667 8.533333 32 4.266667 64-14.933333 89.6-23.466667 27.733333-53.333333 42.666667-87.466667 42.666666zM373.333333 646.4c-2.133333 0-2.133333 0 0 0-119.466667 8.533333-219.733333 91.733333-253.866666 202.666667-4.266667 10.666667-2.133333 23.466667 6.4 34.133333s19.2 17.066667 32 17.066667h710.4c12.8 0 23.466667-6.4 32-17.066667 6.4-10.666667 8.533333-21.333333 6.4-34.133333-34.133333-113.066667-134.4-194.133333-251.733334-202.666667-8.533333 0-14.933333 2.133333-23.466666 8.533333l-57.6 40.533334c-36.266667 25.6-85.333333 25.6-121.6 0l-57.6-40.533334c-8.533333-6.4-14.933333-8.533333-21.333334-8.533333z"
          p-id="8854"></path>
</svg>
