<svg t="1576208155659" class="icon" viewBox="0 0 1024 1024" version="1.1" xmlns="http://www.w3.org/2000/svg" p-id="9352" width="200" height="200">
    <path d="M985.6 454.4l-469.333333-401.066667L38.4 465.066667c-12.8 10.666667-14.933333 32-4.266667 44.8 6.4 6.4 14.933333 10.666667 23.466667 10.666666 6.4 0 14.933333-2.133333 21.333333-8.533333l29.866667-25.6 808.533333-6.4 27.733334 23.466667c12.8 10.666667 34.133333 10.666667 44.8-4.266667 10.666667-12.8 10.666667-32-4.266667-44.8zM625.066667 938.666667V657.066667c0-23.466667-19.2-42.666667-42.666667-42.666667h-130.133333c-23.466667 0-42.666667 19.2-42.666667 42.666667V938.666667c0 17.066667-14.933333 32-32 32h281.6c-19.2 0-34.133333-14.933333-34.133333-32z"
          p-id="9353"></path>
    <path d="M834.133333 339.2c-17.066667 0-32 14.933333-32 32v57.6L533.333333 420.266667h-34.133333l-268.8 8.533333v-57.6c0-17.066667-14.933333-32-32-32s-32 14.933333-32 32v490.666667c0 59.733333 46.933333 106.666667 106.666667 106.666666h102.4c-17.066667 0-32-14.933333-32-32V657.066667c0-59.733333 46.933333-106.666667 106.666666-106.666667h130.133334c59.733333 0 106.666667 46.933333 106.666666 106.666667V938.666667c0 17.066667-14.933333 32-32 32h102.4c59.733333 0 106.666667-46.933333 106.666667-106.666667v-490.666667c2.133333-19.2-12.8-34.133333-29.866667-34.133333z"
          p-id="9354"></path>
</svg>
