<svg t="1576208131720" class="icon" viewBox="0 0 1024 1024" version="1.1" xmlns="http://www.w3.org/2000/svg" p-id="9226" width="200" height="200">
    <path d="M59.733333 516.266667c-8.533333 0-17.066667-4.266667-23.466666-10.666667-10.666667-12.8-10.666667-34.133333 4.266666-44.8L516.266667 49.066667l469.333333 401.066666c12.8 10.666667 14.933333 32 4.266667 44.8-10.666667 12.8-32 14.933333-44.8 4.266667l-426.666667-364.8L78.933333 507.733333c-6.4 6.4-12.8 8.533333-19.2 8.533334zM516.266667 964.266667H273.066667c-59.733333 0-106.666667-46.933333-106.666667-106.666667V578.133333c0-17.066667 14.933333-32 32-32s32 14.933333 32 32v279.466667c0 23.466667 19.2 42.666667 42.666667 42.666667h243.2c17.066667 0 32 14.933333 32 32s-14.933333 32-32 32z"
          p-id="9227"></path>
    <path d="M759.466667 964.266667H516.266667c-17.066667 0-32-14.933333-32-32s14.933333-32 32-32h243.2c23.466667 0 42.666667-19.2 42.666666-42.666667V578.133333c0-17.066667 14.933333-32 32-32s32 14.933333 32 32v279.466667c0 59.733333-46.933333 106.666667-106.666666 106.666667z"
          p-id="9228"></path>
    <path d="M657.066667 964.266667c-17.066667 0-32-14.933333-32-32V652.8c0-23.466667-19.2-42.666667-42.666667-42.666667h-130.133333c-23.466667 0-42.666667 19.2-42.666667 42.666667v279.466667c0 17.066667-14.933333 32-32 32s-32-14.933333-32-32V652.8c0-59.733333 46.933333-106.666667 106.666667-106.666667h130.133333c59.733333 0 106.666667 46.933333 106.666667 106.666667v279.466667c0 17.066667-14.933333 32-32 32z"
          p-id="9229"></path>
</svg>
