<svg t="1576145635783" class="icon" viewBox="0 0 1024 1024" version="1.1" xmlns="http://www.w3.org/2000/svg" p-id="8727" width="200" height="200">
    <path d="M512 590.933333c145.066667 0 264.533333-119.466667 264.533333-264.533333 0-145.066667-119.466667-264.533333-264.533333-264.533333S247.466667 179.2 247.466667 326.4c0 145.066667 119.466667 264.533333 264.533333 264.533333z"
          p-id="8728"></path>
    <path d="M966.4 829.866667c-40.533333-136.533333-164.266667-236.8-307.2-247.466667-23.466667-2.133333-46.933333 4.266667-66.133333 19.2l-57.6 40.533333c-12.8 10.666667-32 10.666667-46.933334 0l-57.6-40.533333c-19.2-14.933333-42.666667-21.333333-66.133333-19.2-142.933333 10.666667-266.666667 110.933333-307.2 247.466667-8.533333 32-4.266667 64 14.933333 89.6 19.2 27.733333 51.2 42.666667 83.2 42.666666h710.4c34.133333 0 64-14.933333 83.2-42.666666 21.333333-25.6 25.6-57.6 17.066667-89.6z"
          p-id="8729"></path>
</svg>
