<svg t="1576206452178" class="icon" viewBox="0 0 1024 1024" version="1.1" xmlns="http://www.w3.org/2000/svg" p-id="9102" width="200" height="200">
    <path d="M789.333333 66.133333H234.666667c-64 0-117.333333 53.333333-117.333334 117.333334v654.933333c0 64 53.333333 117.333333 117.333334 117.333333h554.666666c64 0 117.333333-53.333333 117.333334-117.333333V183.466667c0-64-53.333333-117.333333-117.333334-117.333334zM554.666667 725.333333H277.333333c-17.066667 0-32-14.933333-32-32S260.266667 661.333333 277.333333 661.333333h277.333334c17.066667 0 32 14.933333 32 32S571.733333 725.333333 554.666667 725.333333z m64-181.333333H277.333333c-17.066667 0-32-14.933333-32-32s14.933333-32 32-32h341.333334c17.066667 0 32 14.933333 32 32s-14.933333 32-32 32z m106.666666-181.333333H277.333333c-17.066667 0-32-14.933333-32-32S260.266667 298.666667 277.333333 298.666667h448c17.066667 0 32 14.933333 32 32S742.4 362.666667 725.333333 362.666667z"
          p-id="9103"></path>
</svg>
