<svg t="1576220731192" class="icon" viewBox="0 0 1024 1024" version="1.1" xmlns="http://www.w3.org/2000/svg" p-id="9477" width="200" height="200">
    <path d="M918.3 870.6L793 743.5c57.4-68.5 92-156.8 92-252.9C885 273 708 96 490.5 96S96 273 96 490.5 273 885 490.5 885c97.1 0 186.2-35.3 255-93.7L870.3 918c7.4 7.5 17.5 10.8 27.3 9.9 7.4-0.7 14.6-3.9 20.3-9.5 13.3-13.2 13.5-34.5 0.4-47.8zM167.6 490.5c0-178 144.9-322.9 322.9-322.9 178 0 322.9 144.9 322.9 322.9S668.6 813.4 490.5 813.4c-178.1 0-322.9-144.8-322.9-322.9z"
          p-id="9478"></path>
</svg>
